<?xml version="1.0"?>
<svg xmlns:rdf="http://www.w3.org/1999/02/22-rdf-syntax-ns#" xmlns="http://www.w3.org/2000/svg" xmlns:cc="http://creativecommons.org/ns#" xmlns:dc="http://purl.org/dc/elements/1.1/" xmlns:svg="http://www.w3.org/2000/svg" id="svg9520" viewBox="0 0 85.483 123.8" version="1.1">
  <defs id="defs9522">
    <clipPath id="clipPath5351" clipPathUnits="userSpaceOnUse">
      <path id="path5353" d="m209.47 278.27h20.587v-31.932h-20.587v31.932z"/>
    </clipPath>
  </defs>
  <g id="layer1" transform="translate(-16.09 -278.33)">
    <g id="g4423" transform="matrix(1.25 0 0 -1.25 16.09 389.14)">
      <path id="path4425" d="m0 0s33.294 97.053 68.007 0-30.461-23.379-68.007 0" fill="#d5e166"/>
    </g>
    <g id="g4427" transform="matrix(1.25 0 0 -1.25 31.135 321.2)">
      <path id="path4429" d="m0 0s-21.894 25.795 12.163 34.173 7.769 0.342 9.227-5.581 7.671 7.116 10.746 5.257c0 0 37.347-6.871 11.169-30.475 0 0-26.928-13.287-43.305-3.374" fill="#373535"/>
    </g>
    <g id="g4431" transform="matrix(1.25 0 0 -1.25 41.987 305.7)">
      <path id="path4433" d="m0 0s-23.813-24.726-1.158-31.716 14.637-2.175 27.806-0.511c15.425 1.95 16.142 11.799 1.665 33.932 0 0-4.486-11.569-7.446-12.298 0 0 1.819 8.56-2.791 11.351 0 0-0.71-7.764-5.398-8.917 0 0-0.248 7.922-2.246 9.132 0 0-2.529-8.869-5.861-9.689 0 0-1.169 6.653-4.571 8.716" fill="#f5e3bb"/>
    </g>
    <g id="g4435" transform="matrix(1.25 0 0 -1.25 83.406 333.36)">
      <path id="path4437" d="m0 0c0-1.927-2.324-3.492-5.195-3.492-2.869 0-5.195 1.565-5.195 3.492 0 1.932 2.326 3.495 5.195 3.495 2.871 0 5.195-1.563 5.195-3.495" fill="#f6c589"/>
    </g>
    <g id="g4439" transform="matrix(1.25 0 0 -1.25 47.982 333.36)">
      <path id="path4441" d="m0 0c0-1.927-2.324-3.492-5.194-3.492-2.871 0-5.196 1.565-5.196 3.492 0 1.932 2.325 3.495 5.196 3.495 2.87 0 5.194-1.563 5.194-3.495" fill="#f6c589"/>
    </g>
    <g id="g4443" transform="matrix(1.25 0 0 -1.25 65.911 321.47)">
      <path id="path4445" d="m0 0s4.015 5.901 9.921 0" stroke="#373535" fill="none"/>
    </g>
    <g id="g4447" transform="matrix(1.25 0 0 -1.25 55.27 321.54)">
      <path id="path4449" d="m0 0s-3.956 5.942-9.92 0.097" stroke="#373535" fill="none"/>
    </g>
    <g id="g4451" transform="matrix(1.25 0 0 -1.25 46.551 338.68)">
      <path id="path4453" d="m0 0s9.398-7.825 19.207 0" stroke="#373535" fill="none"/>
    </g>
    <g id="g4455" transform="matrix(1.25 0 0 -1.25 30.66 314.4)">
      <path id="path4457" d="m0 0c-0.639 0.363-1.375 0.64-2.096 0.755-0.924 0.151-1.747-0.217-2.219-1.02-0.545-0.928-0.294-1.872-0.139-2.865 0.292-1.886 1.092-3.882 2.494-5.227 0.304-0.293 0.751-0.56 1.198-0.437 0.628 0.178 1.281 1.08 1.551 1.632" fill="#f5e3bb"/>
    </g>
    <g id="g4459" transform="matrix(1.25 0 0 -1.25 84.533 315.55)">
      <path id="path4461" d="m0 0c0.636 0.361 3.535 1.556 4.26 1.671 0.925 0.151 1.747-0.217 2.217-1.02 0.544-0.928 0.296-1.872 0.142-2.865-0.293-1.886-1.097-3.882-2.494-5.227-0.308-0.293-0.751-0.56-1.202-0.437-0.627 0.178-1.281 1.08-1.548 1.632" fill="#f5e3bb"/>
    </g>
    <path id="path4667" d="m26.132 310.57h-3.7288v-4.89h3.7288v4.89z" fill="#00b0f0"/>
    <path id="path4669" d="m92.152 310.57h3.73v-4.89h-3.73v4.89z" fill="#00b0f0"/>
    <g id="g4671" transform="matrix(1.25 0 0 -1.25 33.466 305.29)">
      <path id="path4673" d="m0 0s4.206-5.258-0.526-17.351-12.092 0.527-11.041 6.31 0.001 11.041 11.567 11.041" fill="#0077bd"/>
    </g>
    <g id="g4675" transform="matrix(1.25 0 0 -1.25 28.897 306.42)">
      <path id="path4677" d="m0 0s1.981-5.942-0.495-12.709 0.766 7.437-1.6 11.775 0.706 0.552 2.095 0.934" fill="#edba54"/>
    </g>
    <g id="g4679" transform="matrix(1.25 0 0 -1.25 19.763 319.86)">
      <path id="path4681" d="m0 0s-0.961 0.616 0.099 2.489-0.37 1.307-0.937 0.124-0.517-0.912-0.172-2.637c0 0 0.616-0.887 1.01 0.024" fill="#bec0c2"/>
    </g>
    <g id="g4683" transform="matrix(1.25 0 0 -1.25 32.507 305.27)">
      <path id="path4685" d="m0 0s0.647 2.119 2.002 0.059 3.945-6.891-1.118-17.724-1.001-0.999-1.472 0.296c0 0 5.181 10.069 0.588 17.369" fill="#737577"/>
    </g>
    <g id="g4687" transform="matrix(1.25 0 0 -1.25 84.817 305.29)">
      <path id="path4689" d="m0 0s-4.206-5.258 0.526-17.351 12.092 0.527 11.041 6.31-0.001 11.041-11.567 11.041" fill="#0077bd"/>
    </g>
    <g id="g4691" transform="matrix(1.25 0 0 -1.25 89.387 306.42)">
      <path id="path4693" d="m0 0s-1.98-5.942 0.496-12.709-0.767 7.437 1.599 11.775-0.706 0.552-2.095 0.934" fill="#edba54"/>
    </g>
    <g id="g4695" transform="matrix(1.25 0 0 -1.25 98.52 319.86)">
      <path id="path4697" d="m0 0s0.961 0.616-0.099 2.489 0.37 1.307 0.937 0.124 0.517-0.912 0.173-2.637c0 0-0.616-0.887-1.011 0.024" fill="#bec0c2"/>
    </g>
    <g id="g4699" transform="matrix(1.25 0 0 -1.25 85.776 305.27)">
      <path id="path4701" d="m0 0s-0.647 2.119-2.001 0.059-3.946-6.891 1.118-17.724 1-0.999 1.471 0.296c0 0-5.18 10.069-0.588 17.369" fill="#737577"/>
    </g>
    <g id="g4703" transform="matrix(1.25 0 0 -1.25 24.758 305.62)">
      <path id="path4705" d="m0 0s24.448 43.77 56.191-0.986-27.405 50.672-56.191 0.986" fill="#0077bd"/>
    </g>
    <g id="g4827" transform="matrix(1.25 0 0 -1.25 30.779 325.66)">
      <path id="path4829" d="m0 0c0.903-3.219-0.724-6.49-3.632-7.306-2.909-0.816-6 1.131-6.902 4.351-0.904 3.219 0.723 6.488 3.632 7.305 2.908 0.816 6-1.131 6.902-4.35" fill="#f5e3bb"/>
    </g>
    <g id="g4831" transform="matrix(1.25 0 0 -1.25 22.555 331.9)">
      <path id="path4833" d="m0 0c-1.864-1.064-2.775-8.787-3.09-10.623-0.734-4.273-0.327-9.34 0.807-13.487 0.368-1.348 0.981-4.297 2.629-4.703 1.961-0.479 5.201 3.375 5.889 4.833 0.729 1.545 1.225 3.6 1.469 5.278 0.928 6.389-1.557 13.499-3.992 19.26 0 0-2.045 0.392-3.712-0.558" fill="#f5e3bb"/>
    </g>
    <g id="g4835" transform="matrix(1.25 0 0 -1.25 17.324 357.83)">
      <path id="path4837" d="m0 0s10.833 0.999 12.5 7.666 3.334-12.833-2.833-16.833-8.667-3.333-10.167 9" fill="#d5e166"/>
    </g>
    <g id="g5335" transform="matrix(1.25 0 0 -1.25 87.492 325.66)">
      <path id="path5337" d="m0 0c-0.903-3.219 0.724-6.49 3.632-7.306 2.909-0.816 6 1.131 6.902 4.351 0.904 3.219-0.723 6.488-3.632 7.305-2.908 0.816-6-1.131-6.902-4.35" fill="#f5e3bb"/>
    </g>
    <g id="g5339" transform="matrix(1.25 0 0 -1.25 95.717 331.9)">
      <path id="path5341" d="m0 0c1.864-1.064 2.775-8.787 3.09-10.623 0.734-4.273 0.327-9.34-0.807-13.487-0.368-1.348-0.981-4.297-2.629-4.703-1.961-0.479-5.201 3.375-5.889 4.833-0.729 1.545-1.225 3.6-1.469 5.278-0.928 6.389 1.557 13.499 3.992 19.26 0 0 2.045 0.392 3.712-0.558" fill="#f5e3bb"/>
    </g>
    <g id="g5343" transform="matrix(1.25 0 0 -1.25 100.95 357.83)">
      <path id="path5345" d="m0 0s-10.833 0.999-12.5 7.666-3.334-12.833 2.833-16.833 8.667-3.333 10.167 9" fill="#d5e166"/>
    </g>
    <g id="g5347" transform="matrix(1.25 0 0 -1.25 -238.92 700.68)">
      <g id="g5355">
        <g id="g5357" opacity=".5" clip-path="url(#clipPath5351)">
          <g id="g5359" transform="translate(225.22 276.57)">
            <path id="path5361" d="m0 0s-20.081-22.111-14.892-25.722c5.19-3.61 10.831-4.512 12.41-4.512 0 0 14.666 40.613 2.482 30.234" fill="#fff"/>
          </g>
        </g>
      </g>
    </g>
  </g>
  <metadata>
    <rdf:RDF>
      <cc:Work>
        <dc:format>image/svg+xml</dc:format>
        <dc:type rdf:resource="http://purl.org/dc/dcmitype/StillImage"/>
        <cc:license rdf:resource="http://creativecommons.org/licenses/publicdomain/"/>
        <dc:publisher>
          <cc:Agent rdf:about="http://openclipart.org/">
            <dc:title>Openclipart</dc:title>
          </cc:Agent>
        </dc:publisher>
        <dc:title>Boy with headphone1</dc:title>
        <dc:date>2010-11-26T01:19:45</dc:date>
        <dc:description>Boy with headphone1</dc:description>
        <dc:source>http://openclipart.org/detail/98329/boy-with-headphone1-by-dcatcherex</dc:source>
        <dc:creator>
          <cc:Agent>
            <dc:title>dcatcherex</dc:title>
          </cc:Agent>
        </dc:creator>
        <dc:subject>
          <rdf:Bag>
            <rdf:li>boy</rdf:li>
            <rdf:li>character</rdf:li>
            <rdf:li>clip art</rdf:li>
            <rdf:li>clipart</rdf:li>
            <rdf:li>cute</rdf:li>
            <rdf:li>headphone</rdf:li>
            <rdf:li>listen</rdf:li>
            <rdf:li>music</rdf:li>
          </rdf:Bag>
        </dc:subject>
      </cc:Work>
      <cc:License rdf:about="http://creativecommons.org/licenses/publicdomain/">
        <cc:permits rdf:resource="http://creativecommons.org/ns#Reproduction"/>
        <cc:permits rdf:resource="http://creativecommons.org/ns#Distribution"/>
        <cc:permits rdf:resource="http://creativecommons.org/ns#DerivativeWorks"/>
      </cc:License>
    </rdf:RDF>
  </metadata>
</svg>
