<?xml version="1.0" encoding="UTF-8" standalone="no"?>
<!-- Created with Inkscape (http://www.inkscape.org/) -->

<svg
   xmlns:dc="http://purl.org/dc/elements/1.1/"
   xmlns:cc="http://creativecommons.org/ns#"
   xmlns:rdf="http://www.w3.org/1999/02/22-rdf-syntax-ns#"
   xmlns:svg="http://www.w3.org/2000/svg"
   xmlns="http://www.w3.org/2000/svg"
   xmlns:sodipodi="http://sodipodi.sourceforge.net/DTD/sodipodi-0.dtd"
   xmlns:inkscape="http://www.inkscape.org/namespaces/inkscape"
   height="16.104715mm"
   width="150.49345mm"
   viewBox="0 0 533.24452 57.063952"
   id="svg3266"
   version="1.1"
   inkscape:version="0.91 r13725"
   sodipodi:docname="knife-kitchen.svg"
   inkscape:export-filename="/home/algot/Documents/runeman.org/clipart/knife-kitchen.png"
   inkscape:export-xdpi="50.633434"
   inkscape:export-ydpi="50.633434">
  <title
     id="title3320">Kitchen Knife</title>
  <defs
     id="defs3272" />
  <sodipodi:namedview
     pagecolor="#ffffff"
     bordercolor="#666666"
     borderopacity="1"
     objecttolerance="10"
     gridtolerance="10"
     guidetolerance="10"
     inkscape:pageopacity="0"
     inkscape:pageshadow="2"
     inkscape:window-width="839"
     inkscape:window-height="480"
     id="namedview3270"
     showgrid="false"
     fit-margin-top="0"
     fit-margin-left="0"
     fit-margin-right="0"
     fit-margin-bottom="0"
     inkscape:zoom="0.22425739"
     inkscape:cx="1250.0045"
     inkscape:cy="-9.1828625"
     inkscape:window-x="0"
     inkscape:window-y="0"
     inkscape:window-maximized="0"
     inkscape:current-layer="svg3266" />
  <metadata
     id="metadata3268">
    <rdf:RDF>
      <cc:Work
         rdf:about="">
        <dc:format>image/svg+xml</dc:format>
        <dc:type
           rdf:resource="http://purl.org/dc/dcmitype/StillImage" />
        <dc:title>Kitchen Knife</dc:title>
        <dc:date>2017-02-18</dc:date>
        <dc:creator>
          <cc:Agent>
            <dc:title>Algot Runeman</dc:title>
          </cc:Agent>
        </dc:creator>
        <dc:rights>
          <cc:Agent>
            <dc:title>Algot Runeman</dc:title>
          </cc:Agent>
        </dc:rights>
        <dc:publisher>
          <cc:Agent>
            <dc:title>runeman.org</dc:title>
          </cc:Agent>
        </dc:publisher>
        <dc:identifier>knife-kitchen.svg</dc:identifier>
      </cc:Work>
    </rdf:RDF>
  </metadata>
  <g
     id="g3603"
     transform="translate(-404.90973,-327.68184)">
    <path
       sodipodi:nodetypes="sccccccccs"
       inkscape:connector-curvature="0"
       id="path3187"
       d="m 437.71196,354.03654 c 82.33506,-23.58762 256.1058,-20.70643 256.1058,-20.70643 l 15.25737,10.89812 5.44906,2.17963 198.34577,-18.5268 25.06567,20.70642 -3.26943,11.98793 -220.14201,7.62869 -308.41677,2.17962 c 0,0 20.20255,-13.0807 31.60454,-16.34718 z"
       style="fill:#cccccc;fill-rule:evenodd;stroke:#000000;stroke-width:0.38530669px;stroke-linecap:butt;stroke-linejoin:miter;stroke-opacity:1" />
    <path
       sodipodi:nodetypes="cccccccc"
       inkscape:connector-curvature="0"
       id="path3189"
       d="m 409.37686,369.29391 307.32695,4.35924 216.87257,-8.71849 0,9.80829 -5.44906,6.53889 -217.24389,3.26944 -5.07774,-10.89813 z"
       style="fill:#000000;fill-rule:evenodd;stroke:#000000;stroke-width:0.38530669px;stroke-linecap:butt;stroke-linejoin:miter;stroke-opacity:1" />
    <path
       inkscape:connector-curvature="0"
       id="path3191"
       d="m 935.75601,348.58748 -219.0522,6.53888 -10.89812,11.98792 228.86051,-6.53887 z"
       style="fill:#1a1a1a;fill-rule:evenodd;stroke:#000000;stroke-width:0.38530669px;stroke-linecap:butt;stroke-linejoin:miter;stroke-opacity:1" />
    <path
       inkscape:connector-curvature="0"
       id="path3193"
       d="m 710.16494,343.13842 -4.35925,26.15549 10.89812,-14.16755 z"
       style="fill:#000000;fill-rule:evenodd;stroke:#000000;stroke-width:0.38530669px;stroke-linecap:butt;stroke-linejoin:miter;stroke-opacity:1" />
    <path
       inkscape:connector-curvature="0"
       id="path3195"
       d="m 935.75601,348.58748 -3.26944,25.06567"
       style="fill:none;fill-rule:evenodd;stroke:#000000;stroke-width:0.38530669px;stroke-linecap:butt;stroke-linejoin:miter;stroke-opacity:1" />
    <path
       sodipodi:nodetypes="csccsc"
       inkscape:connector-curvature="0"
       id="path3197"
       d="m 405.01762,369.29391 c 0,0 77.36535,-16.4191 116.60986,-20.70643 60.36034,-6.59416 181.99859,-7.62868 181.99859,-7.62868 l -9.80831,-8.71849 c 0,0 -176.94596,-3.01006 -260.46505,21.79623 -10.28325,3.05427 -28.33509,15.25737 -28.33509,15.25737 z"
       style="fill:#e6e6e6;fill-rule:evenodd;stroke:#000000;stroke-width:0.38530669px;stroke-linecap:butt;stroke-linejoin:miter;stroke-opacity:1" />
    <path
       sodipodi:nodetypes="cccccc"
       inkscape:connector-curvature="0"
       id="path3199"
       d="m 706.89551,366.02447 2.17962,-20.70642 205.97445,-17.43699 c 20.72385,6.90214 22.06811,13.80428 22.88605,20.70642 l -221.23182,5.44906 z"
       style="fill:#000000;fill-rule:evenodd;stroke:#000000;stroke-width:0.38530669px;stroke-linecap:butt;stroke-linejoin:miter;stroke-opacity:1" />
    <ellipse
       ry="4.3592477"
       rx="10.898119"
       cy="343.13843"
       cx="798.4397"
       id="path3201"
       style="opacity:1;fill:#ffff00;fill-opacity:1;stroke:#ffffff;stroke-width:0.19265334;stroke-linecap:round;stroke-linejoin:bevel;stroke-miterlimit:4;stroke-dasharray:none;stroke-dashoffset:0;stroke-opacity:1" />
    <ellipse
       style="opacity:1;fill:#ffff00;fill-opacity:1;stroke:#ffffff;stroke-width:0.19265334;stroke-linecap:round;stroke-linejoin:bevel;stroke-miterlimit:4;stroke-dasharray:none;stroke-dashoffset:0;stroke-opacity:1"
       id="ellipse3203"
       cx="897.61261"
       cy="339.86902"
       rx="10.898119"
       ry="4.3592477" />
    <path
       sodipodi:nodetypes="cccccccc"
       inkscape:connector-curvature="0"
       id="path3205"
       d="m 707.98531,343.13842 -2.17962,25.2453 -298.60847,-0.17962 306.23716,5.44905 221.23182,-8.71849 0,-4.35925 -228.86051,6.53887 z"
       style="fill:#cccccc;fill-rule:evenodd;stroke:#000000;stroke-width:0.38530669px;stroke-linecap:butt;stroke-linejoin:miter;stroke-opacity:1" />
    <g
       id="text3580"
       style="font-style:normal;font-weight:normal;font-size:12.50000095px;line-height:125%;font-family:sans-serif;text-align:center;letter-spacing:0px;word-spacing:0px;text-anchor:middle;fill:#000000;fill-opacity:1;stroke:none;stroke-width:1px;stroke-linecap:butt;stroke-linejoin:miter;stroke-opacity:1"
       transform="matrix(-1,0,0.1876772,-1,0,0)">
      <path
         id="path3585"
         d="m -765.52356,-366.41263 0,1.20239 q -0.70191,-0.33569 -1.32446,-0.50048 -0.62256,-0.1648 -1.2024,-0.1648 -1.00708,0 -1.55639,0.39063 -0.54322,0.39062 -0.54322,1.11084 0,0.60424 0.36011,0.91552 0.36621,0.30518 1.3794,0.49439 l 0.74462,0.15259 q 1.3794,0.26245 2.03248,0.92773 0.65918,0.65918 0.65918,1.77002 0,1.32446 -0.89112,2.00806 -0.88501,0.68359 -2.6001,0.68359 -0.64697,0 -1.37939,-0.14648 -0.72632,-0.14649 -1.50757,-0.43335 l 0,-1.26954 q 0.75073,0.42115 1.47095,0.63477 0.72021,0.21362 1.41601,0.21362 1.05591,0 1.62964,-0.41504 0.57373,-0.41503 0.57373,-1.18408 0,-0.67138 -0.41504,-1.0498 -0.40893,-0.37842 -1.34887,-0.56763 l -0.75074,-0.14648 q -1.37939,-0.27466 -1.99585,-0.8606 -0.61645,-0.58594 -0.61645,-1.62964 0,-1.20849 0.84839,-1.9043 0.85449,-0.6958 2.34985,-0.6958 0.64087,0 1.30615,0.11597 0.66529,0.11597 1.36109,0.3479 z"
         inkscape:connector-curvature="0" />
      <path
         id="path3587"
         d="m -761.98963,-366.37601 0,1.94092 2.31324,0 0,0.8728 -2.31324,0 0,3.71094 q 0,0.83618 0.22583,1.07422 0.23194,0.23804 0.93384,0.23804 l 1.15357,0 0,0.93994 -1.15357,0 q -1.30005,0 -1.79443,-0.48218 -0.49439,-0.48828 -0.49439,-1.77002 l 0,-3.71094 -0.82397,0 0,-0.8728 0.82397,0 0,-1.94092 1.12915,0 z"
         inkscape:connector-curvature="0" />
      <path
         id="path3589"
         d="m -755.08655,-361.03543 q -1.36108,0 -1.88599,0.31128 -0.5249,0.31128 -0.5249,1.06201 0,0.59814 0.39063,0.95215 0.39673,0.3479 1.07422,0.3479 0.93383,0 1.49536,-0.65918 0.56762,-0.66528 0.56762,-1.76392 l 0,-0.25024 -1.11694,0 z m 2.23999,-0.46387 0,3.90015 -1.12305,0 0,-1.0376 q -0.38452,0.62256 -0.95825,0.92163 -0.57373,0.29297 -1.40381,0.29297 -1.0498,0 -1.67236,-0.58594 -0.61645,-0.59204 -0.61645,-1.58081 0,-1.15356 0.76904,-1.7395 0.77515,-0.58594 2.30713,-0.58594 l 1.5747,0 0,-0.10986 q 0,-0.77515 -0.51269,-1.19629 -0.50659,-0.42725 -1.42822,-0.42725 -0.58594,0 -1.14136,0.14038 -0.55542,0.14039 -1.06812,0.42115 l 0,-1.0376 q 0.61646,-0.23804 1.19629,-0.354 0.57984,-0.12207 1.12915,-0.12207 1.48316,0 2.21558,0.76904 0.73242,0.76904 0.73242,2.33154 z"
         inkscape:connector-curvature="0" />
      <path
         id="path3591"
         d="m -750.52722,-364.43509 1.12305,0 0,6.83594 -1.12305,0 0,-6.83594 z m 0,-2.66113 1.12305,0 0,1.42212 -1.12305,0 0,-1.42212 z"
         inkscape:connector-curvature="0" />
      <path
         id="path3593"
         d="m -741.37805,-361.72513 0,4.12598 -1.12305,0 0,-4.08936 q 0,-0.97046 -0.37842,-1.45263 -0.37841,-0.48218 -1.13525,-0.48218 -0.90942,0 -1.43433,0.57983 -0.5249,0.57984 -0.5249,1.58081 l 0,3.86353 -1.12915,0 0,-6.83594 1.12915,0 0,1.06201 q 0.40283,-0.61645 0.94605,-0.92163 0.54931,-0.30517 1.26342,-0.30517 1.17798,0 1.78223,0.73242 0.60425,0.72632 0.60425,2.14233 z"
         inkscape:connector-curvature="0" />
      <path
         id="path3595"
         d="m -739.12585,-367.09622 1.12304,0 0,9.49707 -1.12304,0 0,-9.49707 z"
         inkscape:connector-curvature="0" />
      <path
         id="path3597"
         d="m -729.81189,-361.29788 0,0.54931 -5.16357,0 q 0.0732,1.15967 0.6958,1.77002 0.62866,0.60425 1.7456,0.60425 0.64698,0 1.25123,-0.15869 0.61035,-0.15869 1.20849,-0.47607 l 0,1.06201 q -0.60425,0.25635 -1.23901,0.39062 -0.63477,0.13428 -1.28784,0.13428 -1.63575,0 -2.594,-0.95215 -0.95215,-0.95215 -0.95215,-2.57568 0,-1.67847 0.90332,-2.66113 0.90943,-0.98877 2.44751,-0.98877 1.3794,0 2.17896,0.89111 0.80566,0.88501 0.80566,2.41089 z m -1.12304,-0.32959 q -0.0122,-0.92163 -0.5188,-1.47095 -0.50049,-0.54932 -1.33057,-0.54932 -0.93994,0 -1.50757,0.53101 -0.56152,0.53101 -0.64697,1.49536 l 4.00391,-0.006 z"
         inkscape:connector-curvature="0" />
      <path
         id="path3599"
         d="m -723.61072,-364.23367 0,1.06201 q -0.47607,-0.24414 -0.98877,-0.36621 -0.51269,-0.12207 -1.06201,-0.12207 -0.83618,0 -1.25732,0.25634 -0.41504,0.25635 -0.41504,0.76905 0,0.39062 0.29907,0.61645 0.29907,0.21973 1.20239,0.42115 l 0.38453,0.0854 q 1.19629,0.25635 1.69677,0.72632 0.5066,0.46387 0.5066,1.30005 0,0.95215 -0.75684,1.50757 -0.75073,0.55542 -2.06909,0.55542 -0.54932,0 -1.14746,-0.10986 -0.59204,-0.10376 -1.25122,-0.31739 l 0,-1.15966 q 0.62255,0.32348 1.2268,0.48828 0.60425,0.15869 1.19629,0.15869 0.79346,0 1.2207,-0.26856 0.42725,-0.27465 0.42725,-0.76904 0,-0.45776 -0.31128,-0.7019 -0.30517,-0.24414 -1.34888,-0.46997 l -0.39062,-0.0916 q -1.0437,-0.21972 -1.50757,-0.67138 -0.46387,-0.45777 -0.46387,-1.25122 0,-0.96436 0.6836,-1.48926 0.68359,-0.5249 1.94092,-0.5249 0.62255,0 1.17187,0.0915 0.54932,0.0915 1.01318,0.27466 z"
         inkscape:connector-curvature="0" />
      <path
         id="path3601"
         d="m -717.09216,-364.23367 0,1.06201 q -0.47608,-0.24414 -0.98877,-0.36621 -0.5127,-0.12207 -1.06201,-0.12207 -0.83618,0 -1.25733,0.25634 -0.41504,0.25635 -0.41504,0.76905 0,0.39062 0.29908,0.61645 0.29907,0.21973 1.20239,0.42115 l 0.38452,0.0854 q 1.19629,0.25635 1.69678,0.72632 0.50659,0.46387 0.50659,1.30005 0,0.95215 -0.75684,1.50757 -0.75073,0.55542 -2.06909,0.55542 -0.54931,0 -1.14746,-0.10986 -0.59204,-0.10376 -1.25122,-0.31739 l 0,-1.15966 q 0.62256,0.32348 1.22681,0.48828 0.60425,0.15869 1.19629,0.15869 0.79345,0 1.2207,-0.26856 0.42725,-0.27465 0.42725,-0.76904 0,-0.45776 -0.31128,-0.7019 -0.30518,-0.24414 -1.34888,-0.46997 l -0.39063,-0.0916 q -1.0437,-0.21972 -1.50756,-0.67138 -0.46387,-0.45777 -0.46387,-1.25122 0,-0.96436 0.68359,-1.48926 0.6836,-0.5249 1.94092,-0.5249 0.62256,0 1.17188,0.0915 0.54931,0.0915 1.01318,0.27466 z"
         inkscape:connector-curvature="0" />
    </g>
  </g>
</svg>
