<?xml version="1.0" encoding="UTF-8" standalone="no"?>
<svg
   xmlns:dc="http://purl.org/dc/elements/1.1/"
   xmlns:cc="http://creativecommons.org/ns#"
   xmlns:rdf="http://www.w3.org/1999/02/22-rdf-syntax-ns#"
   xmlns:svg="http://www.w3.org/2000/svg"
   xmlns="http://www.w3.org/2000/svg"
   xmlns:sodipodi="http://sodipodi.sourceforge.net/DTD/sodipodi-0.dtd"
   xmlns:inkscape="http://www.inkscape.org/namespaces/inkscape"
   id="master-artboard"
   viewBox="0 0 664.67279 985.81683"
   version="1.1"
   x="0px"
   y="0px"
   width="664.67279"
   height="985.81683"
   inkscape:version="0.91 r13725"
   sodipodi:docname="mailbox-colour.svg">
  <metadata
     id="metadata7421">
    <rdf:RDF>
      <cc:Work
         rdf:about="">
        <dc:format>image/svg+xml</dc:format>
        <dc:type
           rdf:resource="http://purl.org/dc/dcmitype/StillImage" />
        <dc:title></dc:title>
        <dc:description>COLOUR REMIX by j4p4n</dc:description>
        <cc:license
           rdf:resource="http://creativecommons.org/publicdomain/zero/1.0/" />
      </cc:Work>
      <cc:License
         rdf:about="http://creativecommons.org/publicdomain/zero/1.0/">
        <cc:permits
           rdf:resource="http://creativecommons.org/ns#Reproduction" />
        <cc:permits
           rdf:resource="http://creativecommons.org/ns#Distribution" />
        <cc:permits
           rdf:resource="http://creativecommons.org/ns#DerivativeWorks" />
      </cc:License>
    </rdf:RDF>
  </metadata>
  <defs
     id="defs7419" />
  <sodipodi:namedview
     pagecolor="#ffffff"
     bordercolor="#666666"
     borderopacity="1"
     objecttolerance="10"
     gridtolerance="10"
     guidetolerance="10"
     inkscape:pageopacity="0"
     inkscape:pageshadow="2"
     inkscape:window-width="1916"
     inkscape:window-height="1035"
     id="namedview7417"
     showgrid="false"
     fit-margin-top="0"
     fit-margin-left="0"
     fit-margin-right="0"
     fit-margin-bottom="0"
     inkscape:zoom="0.61703377"
     inkscape:cx="391.09602"
     inkscape:cy="528.22468"
     inkscape:window-x="4"
     inkscape:window-y="1"
     inkscape:window-maximized="1"
     inkscape:current-layer="g12195" />
  <g
     transform="matrix(3.7039369,0,0,3.7039369,0.11690591,1.3147959)"
     id="g7396">
    <metadata
       id="metadata5" />
    <g
       id="layer1"
       transform="translate(0,-32.416657)">
      <g
         id="g12195"
         transform="matrix(2.8540305,0.66553176,-0.66553176,2.8540305,-71.895635,-693.11704)">
        <g
           style="fill:#ffffff"
           id="layer1-4"
           transform="matrix(0.04841308,-0.02232172,0.02232172,0.04841308,113.176,350.82454)">
          <path
             style="fill:#ffffff"
             id="path0"
             d="m 863.154,208.345 c 3.428,19.472 6.134,35.146 9.94,55.532 0.756,4.052 2.5,6.618 4.609,7.833 2.351,1.275 5.287,2.366 8.813,3.279 3.524,0.909 6.764,1.365 9.716,1.365 3.556,0 6.521,-0.54 8.342,-1.359 1.554,-0.699 2.349,-1.974 2.349,-3.918 0,-0.729 -0.119,-1.325 -0.27,-1.821 -0.571,-1.874 -0.814,-3.035 -0.814,-3.461 0,-0.972 0.297,-2.238 0.814,-3.825 2.254,-6.913 4.719,-16.043 8.304,-28.978 3.586,-12.932 6.345,-23.625 8.359,-32.059 5.096,-21.319 7.685,-33.696 7.685,-36.55 0,-1.274 -0.326,-2.372 -0.994,-3.279 -0.718,-0.975 -2.348,-2.042 -4.881,-3.188 -5.661,-2.559 -10.616,-3.736 -15.196,-3.736 -3.134,0 -5.389,1.043 -6.115,3.46 -5.351,17.787 -7.731,30.336 -12.374,49.69 -2.333,-13.372 -4.714,-31.904 -11.778,-43.194 -1.329,-2.123 -4.277,-4.16 -8.856,-6.101 -5.785,-2.55 -11.388,-3.766 -16.328,-3.766 -1.627,0 -3.093,0.562 -4.43,1.64 -1.374,1.108 -2.602,3.528 -3.706,7.286 -7.813,26.601 -15.275,54.861 -22.808,84.917 -2.107,8.622 -3.464,13.996 -4.065,16.12 -0.423,1.64 -0.634,3.066 -0.634,4.281 0,2.428 1.839,4.433 5.514,6.011 4.64,2.004 9.521,3.006 14.643,3.006 3.976,0 6.627,-0.94 7.954,-2.822 0.722,-1.034 1.406,-2.653 1.987,-4.874 5.441,-20.795 10.548,-41.235 14.22,-61.489 z"
             inkscape:connector-curvature="0" />
          <path
             style="fill:#ffffff"
             id="path836"
             d="m 27.006,183.087 c 4.164,24.748 9.148,55.898 13.621,79.979 0.956,5.141 2.61,8.822 5.982,10.591 5.855,3.07 11.267,4.502 17.075,4.502 4.953,0 11.014,-0.166 11.014,-5.155 0,-2.166 -1.021,-3.918 -1.021,-7.816 0,-1.446 0.678,-3.072 1.202,-5.117 10.883,-42.508 23.126,-88.958 34.351,-127.935 0.616,-2.139 -0.674,-4.748 -1.678,-5.74 -4.514,-4.461 -16.592,-5.099 -21.955,-4.855 -3.804,0.172 -6.447,1.355 -7.43,4.397 -6.755,20.907 -10.909,36.189 -19.776,65.628 -2.835,-18.693 -7.4,-44.036 -12.672,-56.43 -1.23,-2.894 -5.387,-5.603 -10.93,-8.116 -7.048,-3.195 -12.104,-4.243 -18.105,-4.243 -1.977,0 -3.756,0.713 -5.382,2.084 -1.669,1.408 -3.095,4.501 -4.502,9.26 -13.982,47.277 -23.397,83.619 -33.318,129.481 -0.454,2.098 -0.769,3.897 -0.769,5.44 0,3.087 1.853,5.46 6.317,7.472 5.638,2.54 9.867,3.055 16.09,3.055 4.831,0 7.844,-0.742 9.453,-3.137 0.881,-1.312 1.637,-3.742 2.265,-6.585 5.931,-26.854 13.754,-61.611 20.168,-86.76 z"
             inkscape:connector-curvature="0" />
          <path
             style="fill:#ffffff"
             id="path0-8"
             d="m 129.078,156.029 c -1.816,0 -3.146,0.121 -3.993,0.362 -2.053,0.486 -3.558,1.756 -4.512,3.814 -0.955,1.997 -3.518,9.851 -7.69,23.56 -4.172,13.709 -7.733,25.98 -10.684,36.815 -7.377,27.115 -11.053,42.7 -11.025,46.755 0.021,2.786 1.641,5.086 4.861,6.9 1.883,1.091 4.567,2.06 8.054,2.907 3.487,0.846 6.499,1.27 9.043,1.27 1.997,0 3.811,-0.15 5.443,-0.454 2.357,-0.483 3.952,-1.725 4.786,-3.723 0.833,-2.179 3.926,-14.374 9.279,-36.589 1.353,-5.748 3.992,-15.886 7.914,-30.413 3.925,-14.525 6.597,-24.179 8.016,-28.961 2.189,-7.263 3.28,-11.562 3.27,-12.893 -0.022,-3.329 -2.431,-5.719 -7.223,-7.172 -5.094,-1.451 -10.273,-2.177 -15.539,-2.178 z"
             inkscape:connector-curvature="0" />
          <path
             style="fill:#ffffff"
             id="path0-83"
             d="m 196.061,184.925 c 2.588,0 3.797,1.324 3.797,3.421 0,0.958 -0.233,2.498 -1.002,4.716 -0.435,1.253 -0.632,2.394 -0.632,3.413 0,3.53 3.341,5.295 10.026,5.295 6.443,0 11.296,-1.429 14.542,-4.308 3.499,-3.105 5.154,-9.238 5.154,-16.425 0,-8.02 -1.915,-14.168 -5.781,-18.405 -4.381,-4.8 -10.719,-7.182 -18.968,-7.182 -8.491,0 -16.664,2.494 -24.478,7.542 -10.25,6.623 -18.499,16.903 -24.749,30.793 -6.756,15.017 -10.117,30.584 -10.117,46.684 0,12.868 2.443,22.785 8.528,30.084 4.994,5.989 11.734,9.148 19.021,9.148 5.359,0 10.834,-1.236 16.438,-3.681 7.162,-3.124 12.967,-7.438 17.433,-13.297 2.881,-3.778 5.435,-8.515 7.632,-14.229 2.198,-5.717 3.296,-10.4 3.296,-14.051 0,-2.274 -1.142,-3.923 -3.431,-4.938 -2.709,-1.199 -5.631,-1.797 -8.761,-1.797 -2.41,0 -4.978,0.357 -7.679,1.169 -3.081,0.925 -5.334,2.244 -6.683,3.949 -0.641,0.81 -1.822,3.286 -3.613,7.361 -1.76,4.005 -4.215,5.847 -6.683,5.847 -3.102,0 -4.668,-1.943 -4.668,-7.362 0,-5.807 0.895,-12.122 2.528,-18.943 2.222,-9.28 5.389,-18.255 10.086,-26.933 2.951,-5.446 5.873,-7.871 8.764,-7.871 z"
             inkscape:connector-curvature="0" />
          <path
             style="fill:#ffffff"
             id="path0-4"
             d="m 275.423,226.209 c 20.009,-7.367 31.628,-25.457 38.853,-39.04 5.357,-10.072 8.549,-17.808 8.549,-21.587 0,-2.521 -2.656,-4.774 -7.969,-6.752 -5.969,-2.223 -10.655,-3.332 -14.059,-3.332 -1.013,0 -1.796,0.171 -2.327,0.54 -1.022,0.711 -2.729,4.151 -5.058,9.613 -2.925,6.723 -5.313,11.615 -7.163,14.676 -2.449,4.142 -5.535,7.91 -9.223,11.346 -4.431,4.128 -9.372,7.051 -15.46,9.813 3.723,-12.116 9.719,-26.241 11.312,-38.657 0.229,-1.785 -1.412,-3.342 -4.208,-4.682 -4.846,-2.321 -11.015,-3.511 -18.535,-3.511 -2.387,0 -4.063,0.446 -5.016,1.35 -1.197,1.137 -2.755,5.329 -4.717,12.185 -9.974,34.871 -16.229,60.276 -24.714,92.378 -1.15,4.35 -1.88,7.053 -1.88,8.193 0,0.959 0.333,1.861 0.895,2.552 0.515,0.632 2.066,1.545 4.747,2.701 6.216,2.684 12.656,3.87 19.104,3.87 2.268,0 4.134,-0.863 4.693,-2.742 2.618,-8.804 5.572,-21.689 7.903,-33.542 6.919,12.719 16.498,34.37 24.287,45.713 0.7,1.019 1.731,1.441 2.866,1.441 3.82,0 7.506,-1.634 13.846,-5.132 5.916,-3.265 9.107,-6.783 9.107,-8.943 0,-2.282 -4.174,-10.44 -12.565,-25.701 -4.382,-7.968 -9.036,-15.849 -13.268,-22.75 z"
             inkscape:connector-curvature="0" />
          <path
             style="fill:#ffffff"
             id="path0-2"
             d="m 350.073,186.12 c 0,0 21.612,0.502 30.748,0.941 3.366,0.161 9.366,0.312 10.869,0.312 2.345,0 4.013,-0.495 5.229,-1.742 1.129,-1.157 2.199,-3.626 3.487,-7.423 2.38,-7.021 3.335,-12.231 3.335,-15.959 0,-1.562 -0.532,-2.744 -1.442,-3.516 -1.074,-0.911 -3.853,-1.302 -8.475,-1.623 -21.697,-1.509 -33.928,-1.63 -57.097,-0.782 -2.945,0.108 -4.964,0.626 -6.042,1.535 -0.847,0.714 -1.667,2.258 -2.524,4.597 -1.368,3.732 -2.329,7.272 -3.441,11.419 -1.112,4.147 -1.839,7.701 -1.839,8.964 0,2.043 1.375,3.225 3.474,3.605 1.867,0.339 5.468,0.604 5.468,0.604 l -5.075,18.23 c -3.125,0 -4.396,-0.018 -5.109,0.24 -2.112,0.764 -4.218,2.978 -5.8,7.573 -1.709,4.964 -3.156,12.824 -3.156,17.272 0,1.804 1.031,3.109 2.25,3.739 0.766,0.395 3.163,0.894 3.163,0.894 l -4.24,18.213 c -0.631,2.713 -0.991,4.599 -0.991,5.68 0,2.405 1.156,5.631 3.275,8.926 3.291,5.118 6.181,7.868 8.893,8.925 1.916,0.747 6.402,1.082 13.435,1.082 l 10.099,0 18.09,0.21 c 4.327,0.051 6.878,-1.143 8.444,-4.086 3.207,-6.026 4.857,-10.809 4.658,-18.48 -0.067,-2.585 -0.873,-3.844 -2.854,-4.388 -1.744,-0.479 -8.084,-0.886 -18.783,-0.964 -5.891,-0.042 -12.682,-0.209 -12.682,-0.209 l 2.916,-14.968 c 5.891,-0.119 13.347,-0.108 23.142,0.002 2.052,0.022 6.188,0.18 7.33,0.18 1.864,0 3.142,-0.405 4.118,-1.352 1.067,-1.037 2.034,-2.684 3.184,-5.53 2.891,-7.151 4.429,-13.725 4.79,-17.932 0.159,-1.856 -1.085,-3.321 -3.125,-3.816 -2.167,-0.526 -9.115,-1.18 -20.957,-1.452 -3.845,-0.088 -8.63,-0.02 -8.63,-0.02 1.684,-5.05 2.376,-8.901 2.376,-11.065 0,-0.901 -1.147,-2.098 -2.34,-2.797 -3.926,-2.301 -8.171,-5.039 -8.171,-5.039 z"
             inkscape:connector-curvature="0" />
          <path
             style="fill:#ffffff"
             id="path878"
             d="m 688.285,184.77 c 0,0 19.021,0.062 30.746,0.67 3.366,0.175 9.366,0.312 10.869,0.312 2.346,0 4.013,-0.495 5.23,-1.743 1.128,-1.157 2.199,-3.565 3.485,-7.363 2.381,-7.021 3.095,-12.231 3.095,-15.959 0,-1.562 -0.531,-2.744 -1.441,-3.516 -1.073,-0.911 -3.854,-1.301 -8.475,-1.623 -21.697,-1.509 -33.688,-1.63 -56.856,-0.782 -2.945,0.108 -4.964,0.625 -6.041,1.534 -0.848,0.714 -1.667,2.258 -2.524,4.598 -1.368,3.731 -2.329,7.272 -3.44,11.419 -1.112,4.147 -1.84,7.701 -1.84,8.964 0,2.044 1.375,3.225 3.475,3.606 1.867,0.339 5.468,0.604 5.468,0.604 l -5.134,18.411 c -3.126,0 -4.396,-0.018 -5.109,0.24 -2.111,0.763 -4.073,2.798 -5.656,7.394 -1.709,4.964 -3.155,12.739 -3.155,17.187 0,1.804 1.03,3.11 2.25,3.739 0.766,0.395 2.909,0.744 2.909,0.744 l -4.041,18.447 c -0.596,2.721 -1.021,4.599 -1.021,5.681 0,2.403 1.156,5.63 3.275,8.925 3.291,5.119 6.691,8.229 9.404,9.286 1.915,0.746 5.891,0.722 12.924,0.722 l 10.098,0 18.09,0.21 c 4.327,0.05 6.879,-1.144 8.444,-4.086 3.208,-6.027 4.985,-12.126 4.743,-18.694 -0.095,-2.584 -0.872,-3.843 -2.854,-4.388 -1.744,-0.479 -8.169,-0.545 -18.869,-0.623 -5.89,-0.043 -12.724,-0.337 -12.724,-0.337 l 2.946,-15.117 c 5.89,-0.12 9.666,0.102 19.46,0.212 2.052,0.022 9.821,0.27 10.964,0.27 1.863,0 3.142,-0.405 4.117,-1.353 1.068,-1.036 2.095,-2.834 3.245,-5.68 2.891,-7.151 4.429,-13.724 4.789,-17.932 0.158,-1.856 -1.085,-3.321 -3.126,-3.816 -2.167,-0.526 -9.234,-1.181 -21.077,-1.453 -3.845,-0.088 -8.63,-0.02 -8.63,-0.02 1.685,-5.05 2.498,-8.901 2.498,-11.065 0,-0.901 -1.148,-2.099 -2.341,-2.797 -3.926,-2.301 -8.17,-4.829 -8.17,-4.828 z"
             inkscape:connector-curvature="0" />
          <path
             style="fill:#ffffff"
             id="path0-3"
             d="m 422.451,246.815 c 1.146,-5.183 2.506,-11.388 4.382,-18.258 6.501,-23.809 11.022,-40.417 13.934,-49.815 2.634,-8.504 3.977,-13.622 3.977,-15.37 0,-1.989 -2.05,-3.637 -6.147,-4.972 -6.633,-2.161 -12.354,-3.135 -16.756,-3.135 -3.194,0 -5.106,0.684 -6.116,2.32 -0.738,1.197 -1.566,4.055 -2.984,8.408 -7.058,21.647 -21.055,71.546 -22.949,86.268 -0.223,1.733 0.594,4.501 1.973,7.036 3.805,6.987 6.92,11.643 9.524,14.345 2.218,2.302 4.494,3.719 6.902,3.978 1.658,0.178 7.5,0.362 21.546,0.362 l 10.849,0 c 2.956,0 5.499,-0.362 6.705,-0.966 2.169,-1.085 4.092,-3.838 5.606,-8.316 2.858,-8.455 4.336,-14.066 4.336,-17.923 0,-2.473 -1.238,-4.047 -4.734,-4.047 l -2.779,0 c -7.476,0 -14.468,0.182 -20.073,0.182 -2.835,0.001 -7.196,-0.096 -7.196,-0.097 z"
             inkscape:connector-curvature="0" />
          <path
             style="fill:#ffffff"
             id="path0-1"
             d="m 515.361,153.968 c -3.589,0 -7.359,0.704 -11.29,2.171 -10.109,3.775 -24.48,15.121 -31.889,28.321 -8.05,14.341 -13.436,33.205 -13.436,51.248 0,14.835 4.248,26.221 12.651,34.728 6.789,6.872 14.535,10.595 23.328,10.595 7.953,0 16.675,-3.009 24.497,-8.718 9.763,-7.126 16.866,-16.804 22.071,-29.338 7.177,-17.317 10.766,-34.15 10.766,-50.499 0,-12.594 -2.388,-22.966 -6.011,-31.152 -1.793,-4.051 -5.324,-6.854 -8.097,-6.388 -5.186,0.872 -12.301,9.525 -17.781,13.204 0.672,-3.215 0.843,-7.181 0.843,-9.422 0,-3.717 -2.784,-4.75 -5.652,-4.75 z m 2.303,26.735 c 1.375,5.147 1.893,7.675 1.893,13.246 0,15.924 -3.206,29.021 -8.814,40.892 -3.832,8.113 -7.791,12.528 -12.098,12.528 -5.117,0 -8.044,-6.16 -8.044,-13.173 0,-8.785 2.082,-17.033 6.16,-26.767 3.882,-9.265 8.579,-15.926 14.924,-20.038 1.971,-1.277 3.034,-1.905 3.588,-2.725 1.601,-2.371 2.392,-3.963 2.391,-3.963 z"
             inkscape:connector-curvature="0" />
          <path
             style="fill:#ffffff"
             id="path903"
             d="m 788.829,154.208 c -3.589,0 -7.36,0.703 -11.29,2.169 -10.11,3.771 -24.424,15.139 -31.891,28.293 -7.794,13.732 -13.605,33.172 -13.605,51.197 0,14.82 4.417,26.435 12.821,34.932 6.79,6.866 14.535,10.345 23.328,10.345 8.254,0 16.301,-2.843 24.137,-8.528 9.75,-7.138 17.231,-17.135 22.432,-29.658 7.182,-17.298 10.767,-33.947 10.767,-50.278 0,-12.582 -2.388,-22.943 -6.012,-31.121 -1.793,-4.047 -5.324,-6.847 -8.097,-6.381 -5.185,0.871 -12.301,9.516 -17.781,13.191 0.673,-3.211 0.844,-7.174 0.844,-9.414 -10e-4,-3.714 -2.785,-4.747 -5.653,-4.747 z m 2.303,26.921 c 1.374,4.292 1.764,7.456 1.764,13.021 0,15.908 -3.077,28.992 -8.686,40.851 -3.833,8.105 -7.791,12.516 -12.099,12.516 -5.537,0 -8.044,-6.573 -8.044,-13.16 0,-8.776 2.082,-17.016 6.161,-26.739 3.882,-9.255 8.579,-15.91 14.923,-20.018 1.971,-1.276 3.03,-1.906 3.589,-2.722 1.388,-2.031 2.392,-3.749 2.392,-3.749 z"
             inkscape:connector-curvature="0" />
          <path
             style="fill:#ffffff"
             id="path0-5"
             d="m 595.654,154.444 c -9.36,0 -17.846,1.39 -25.454,4.167 -3.021,1.087 -4.998,2.5 -5.979,4.531 -1.477,3.051 -5.345,17.44 -6.735,23.616 -0.397,1.767 0.788,3.319 2.627,3.319 1.026,0 2.568,-0.454 4.923,-1.48 2.355,-1.027 5.075,-1.875 5.075,-1.875 l -10.964,40.104 c -4.047,14.374 -6.583,23.598 -6.069,28.626 0.891,8.714 10.822,17.136 15.309,21.409 1.865,1.777 4.742,2.446 8.244,2.446 9.422,0 20.507,-3.254 29.861,-7.855 12.75,-6.27 20.88,-14.02 28.208,-24.878 9.343,-13.843 14.043,-27.992 14.043,-42.486 0,-7.126 -1.299,-13.952 -3.896,-20.473 -2.778,-7.067 -6.885,-12.895 -12.32,-17.485 -9.121,-7.79 -21.411,-11.686 -36.873,-11.686 z m -5.348,27.852 c 9.122,0 15.217,2.545 20.128,7.961 3.905,4.308 6.229,9.984 6.229,16.748 0,9.663 -3.165,17.814 -8.857,25.726 -5.856,8.138 -12.756,12.396 -20.971,13.301 l 11.055,-43.485 c 1.273,-5.012 1.901,-8.093 1.901,-9.24 0,-4.59 -7.1,-8.33 -16.677,-10.127 0,0 3.488,-0.884 7.192,-0.884 z"
             inkscape:connector-curvature="0" />
          <path
             style="fill:#ffffff"
             id="rect918"
             d="m 938.953,160.462 0,3.015 4.884,0 0,13.546 3.27,0 0,-13.546 4.883,0 0,-3.015 z"
             inkscape:connector-curvature="0" />
          <path
             style="fill:#ffffff"
             id="rect923"
             d="m 954.368,160.462 0,16.561 3.27,0 0,-12.359 4.67,12.359 2.464,0 4.671,-12.359 0,12.359 3.27,0 0,-16.561 -1.682,0 -1.588,0 -1.555,0 -4.348,11.427 -4.349,-11.427 -1.554,0 -1.588,0 z"
             inkscape:connector-curvature="0" />
        </g>
        <g
           id="g7989">
          <path
             inkscape:connector-curvature="0"
             id="path7982"
             d="m 139.60535,240.77575 -16.54201,4.01074 -35.420243,9.17951 -0.301832,9.88219 2.155663,7.92934 1.851129,2.02128 43.397843,-9.81332 7.23623,-1.84073 -0.77985,-3.34427 -3.25502,-13.95866 0.76612,-2.6316 z"
             style="fill:#b5b5b5;fill-opacity:1;fill-rule:evenodd;stroke:none;stroke-width:0.09212547px;stroke-linecap:butt;stroke-linejoin:miter;stroke-opacity:1" />
          <path
             sodipodi:nodetypes="cccccsccccccccscccccccc"
             inkscape:connector-curvature="0"
             id="path12141"
             transform="matrix(0.08971842,-0.02092145,0.02092145,0.08971842,47.117959,243.22627)"
             d="m 930.05664,0 -134.7168,2.84375 1.13868,71.761719 91.04492,5.589843 -3.0918,115.458988 -465.64844,13.55468 c -46.39093,1.35028 -66.14199,154.00024 -38.36718,231.60547 l 245.375,8.06641 0.0898,2.94531 1.3125,-0.16015 86.94336,2.21875 0.54297,-7.73633 247.17383,-6.03711 70.48242,-48.35547 c -2.474,-63.40204 0.8487,-176.50412 -26.2871,-187.47656 -26.64658,-10.77455 -57.70829,-8.43301 -85.73634,-9.19336 z m 39.0957,208.56641 c -32.64543,42.18692 -19.44726,145.71609 -19.44726,220.41015 -185.83529,8.44359 -371.67057,7.21669 -557.50586,-1.62109 -31.34457,-109.92663 -1.6618,-154.12996 21.06836,-205.82227 l 105.3418,-4.86328 z"
             style="fill:#000000;fill-opacity:1;stroke:none;stroke-width:0.26458299px;stroke-linecap:butt;stroke-linejoin:miter;stroke-opacity:1" />
          <path
             style="fill:#818181;fill-opacity:1;stroke:none;stroke-width:0.26458332px;stroke-linecap:butt;stroke-linejoin:miter;stroke-opacity:1"
             d="m 142.28761,260.35065 3.80859,-4.00904 c -1.24645,-5.16405 -2.96798,-15.3626 -6.04697,-14.49937 -3.19664,0.89621 0.50961,12.29963 2.23838,18.50841 z"
             id="path12143"
             inkscape:connector-curvature="0" />
          <path
             sodipodi:nodetypes="ccccccccccc"
             inkscape:connector-curvature="0"
             id="path7970"
             transform="matrix(0.08971842,-0.02092145,0.02092145,0.08971842,47.117959,243.22627)"
             d="m 628.81445,446.80469 -3.4375,2.0625 2.03473,19.46155 12.11957,435.81579 -0.96289,-1.69336 6.45312,51.61914 38.70704,-46.45117 c -0.46831,-0.063 -0.9238,-0.13392 -1.39454,-0.19531 l 32.22852,-459.61133 -1.47266,-1.00781 z"
             style="fill:#a05a2c;fill-opacity:1;stroke:#000000;stroke-width:9;stroke-linecap:butt;stroke-linejoin:miter;stroke-miterlimit:4;stroke-dasharray:none;stroke-opacity:1" />
          <path
             id="path7963"
             transform="matrix(0.08971842,-0.02092145,0.02092145,0.08971842,47.117959,243.22627)"
             d="m 525.31641,785.53516 10.50586,135.38672 -31.53125,-46.82422 11.06054,48.38086 -52.56054,-74.81446 20.10937,97.41016 -45.07031,-46.25781 26.88672,81.11718 L 837.07422,980 C 799.64375,946.38439 755.84349,917.01077 682.33398,907.42383 l 0.0508,-0.72461 c -14.61545,11.9 -29.23028,17.88444 -43.84571,-2.8711 l -0.35351,-2.05273 -27.43164,-48.28125 -3.01953,48.07617 -23.78516,-46.50586 -7.4336,41.46094 -51.19921,-110.99023 z"
             style="fill:#44aa00;fill-opacity:1;stroke:#000000;stroke-width:9;stroke-linecap:butt;stroke-linejoin:miter;stroke-miterlimit:4;stroke-dasharray:none;stroke-opacity:1"
             inkscape:connector-curvature="0" />
          <path
             sodipodi:nodetypes="cccccc"
             inkscape:connector-curvature="0"
             id="path7984"
             transform="matrix(0.08971842,-0.02092145,0.02092145,0.08971842,47.117959,243.22627)"
             d="M 905.08746,7.0431745 795.33984,2.84375 l 1.13868,71.761719 91.04492,5.589843 12.96326,-1.526907 z"
             style="fill:#d40000;fill-opacity:1;stroke:#000000;stroke-width:8;stroke-linecap:round;stroke-linejoin:miter;stroke-miterlimit:4;stroke-dasharray:none;stroke-opacity:1" />
        </g>
      </g>
    </g>
  </g>
</svg>
